<mxfile host="app.diagrams.net" modified="2024-11-05T07:59:49.428Z" agent="Mozilla/5.0 (Windows NT 10.0; WOW64) AppleWebKit/537.36 (KHTML, like Gecko) Chrome/94.0.4606.71 Safari/537.36 SE 2.X MetaSr 1.0" version="24.6.5" etag="sBeFxpfrA25edl_czosR" type="github">
  <diagram name="第 1 页" id="m4-QasUJky8BugKnO2Gy">
    <mxGraphModel>
      <root>
        <mxCell id="0" />
        <mxCell id="1" parent="0" />
      </root>
    </mxGraphModel>
  </diagram>
</mxfile>
